# xmcd
#
# Track frame offsets: 
#        150
#        16182
#        37405
#        50474
#        66324
#        81066
#        99422
#        112041
#        131340
#        147352
#        160167
#        173017
#        190514
#        212394
#        228342
#        250949
#        267644
#        291023
#        301308
#        323645
#
# Disc length: 4512 seconds
#
# Revision: 3
# Processed by: cddbd v1.5.2PL0 Copyright (c) Steve Scherf et al.
# Submitted via: ExactAudioCopy v0.95b4
#
DISCID=15119e14
DTITLE=Various Artist - Ministry Of Sound - Cream 15 Years [CD1)
DYEAR=2008
DGENRE=Electronic
TTITLE0=Alan Braxe and Fred Falke - Intro
TTITLE1=Ultra Naté - Free
TTITLE2=David Morales pts. Face (The) feat. Juliet Rogers - Needin' U 
TTITLE2=(Vocal Version)
TTITLE3=Reel 2 Real - Jazz It Up (Erick 'More' Morillo Club Mix)
TTITLE4=Kenny 'Dope' pts. Bucketheads (The) - The Bomb! (These Sounds 
TTITLE4=Fall Into My Mind)
TTITLE5=Robin S - Show Me Love (StoneBridge Club Mix)
TTITLE6=Alex Party - Alex Party (Saturday Night Party)
TTITLE7=Strike - U Sure Do
TTITLE8=Happy Clappers - I Believe
TTITLE9=Nightcrawlers (The) - Push The Feeling On
TTITLE10=Sandy B - Make The World Go Round (Deep Dish Vocal Mix)
TTITLE11=Alison Limerick - Where Love Lives
TTITLE12=Pulse - The Lover That You Are (The Club Vocal Mix)
TTITLE13=De'Lacy - Hideaway (Dubfire Needs To Score)
TTITLE14=Bob Sinclar - I Feel For You
TTITLE15=Masters At Work pt. India - To Be In Love (MAW '99 Mix)
TTITLE16=Kings Of Tomorrow - Finally
TTITLE17=Double 99 - Rip Groove
TTITLE18=Sol Brothers feat. Kathy Brown - Turn Me Out (Turn To Sugar)
TTITLE19=Kadoc - The Nighttrain
EXTD=CREAMCD4 (p) 2008
EXTT0=
EXTT1=
EXTT2=
EXTT3=
EXTT4=
EXTT5=
EXTT6=
EXTT7=
EXTT8=
EXTT9=
EXTT10=
EXTT11=
EXTT12=
EXTT13=
EXTT14=
EXTT15=
EXTT16=
EXTT17=
EXTT18=
EXTT19=
PLAYORDER=
